<svg width="144" height="44" viewBox="0 0 144 44" fill="none" xmlns="http://www.w3.org/2000/svg">
<g filter="url(#filter0_d_958_2)">
<rect width="143.882" height="39.7565" rx="19.8783" fill="#68D2E8"/>
</g>
<path d="M71.7176 14.28C71.8669 14.28 71.9416 14.3493 71.9416 14.488V28.152C71.9416 28.28 71.8669 28.344 71.7176 28.344H70.1016C69.9629 28.344 69.8936 28.28 69.8936 28.152V14.488C69.8936 14.3493 69.9629 14.28 70.1016 14.28H71.7176ZM60.9176 20.584C60.7896 20.584 60.7256 20.5147 60.7256 20.376V15.128C60.7256 14.9893 60.7949 14.92 60.9336 14.92H67.4296C67.5576 14.92 67.6216 14.9893 67.6216 15.128V16.44C67.6216 16.568 67.5576 16.632 67.4296 16.632H62.7576V18.872H67.6696C67.7976 18.872 67.8616 18.9413 67.8616 19.08V20.376C67.8616 20.5147 67.7976 20.584 67.6696 20.584H60.9176ZM69.3176 23.048V23.08C69.3176 23.176 69.2483 23.24 69.1096 23.272C68.0003 23.496 66.7203 23.6347 65.2696 23.688V27.768C65.2696 27.896 65.2003 27.96 65.0616 27.96H63.4456C63.3069 27.96 63.2376 27.896 63.2376 27.768V23.736H62.9656H59.7176C59.5789 23.736 59.5096 23.672 59.5096 23.544V22.2C59.5096 22.072 59.5789 22.008 59.7176 22.008H62.5656C65.0829 22.008 67.1949 21.8587 68.9016 21.56H68.9496C69.0563 21.56 69.1203 21.624 69.1416 21.752L69.3176 23.048ZM87.0906 25.192C87.2293 25.192 87.2986 25.2613 87.2986 25.4V26.808C87.2986 26.936 87.2293 27 87.0906 27H73.9706C73.8426 27 73.7786 26.936 73.7786 26.808V25.4C73.7786 25.2613 73.8426 25.192 73.9706 25.192H79.5226V23.128H75.9706C75.8426 23.128 75.7786 23.064 75.7786 22.936V18.616C75.7786 18.4667 75.8426 18.392 75.9706 18.392H83.2506V17.096H75.9386C75.8106 17.096 75.7466 17.0213 75.7466 16.872V15.56C75.7466 15.4213 75.8106 15.352 75.9386 15.352H85.0906C85.2293 15.352 85.2986 15.4213 85.2986 15.56V19.848C85.2986 19.9013 85.2773 19.9493 85.2346 19.992C85.2026 20.0347 85.1493 20.056 85.0746 20.056H77.8106V21.432H85.4106C85.5599 21.432 85.6346 21.5013 85.6346 21.64V22.936C85.6346 23.064 85.5599 23.128 85.4106 23.128H81.5546V25.192H87.0906ZM101.536 19.224C101.685 19.224 101.76 19.2987 101.76 19.448V20.84C101.76 20.9787 101.685 21.048 101.536 21.048H99.5036V28.152C99.5036 28.28 99.4289 28.344 99.2796 28.344H97.6476C97.5196 28.344 97.4556 28.28 97.4556 28.152V14.488C97.4556 14.3493 97.5196 14.28 97.6476 14.28H99.2796C99.4289 14.28 99.5036 14.3493 99.5036 14.488V19.224H101.536ZM95.2156 15.784C95.3543 15.784 95.4236 15.8533 95.4236 15.992V17.912C95.4236 19.448 94.9383 20.8187 93.9676 22.024C92.9969 23.2187 91.4929 24.3173 89.4556 25.32C89.4236 25.3413 89.3756 25.352 89.3116 25.352C89.2369 25.352 89.1836 25.32 89.1516 25.256L88.3996 23.928C88.3676 23.8747 88.3516 23.832 88.3516 23.8C88.3516 23.7467 88.3943 23.6933 88.4796 23.64C90.2076 22.7973 91.4503 21.9333 92.2076 21.048C92.9756 20.1627 93.3596 19.1173 93.3596 17.912V17.592H88.9596C88.8316 17.592 88.7676 17.528 88.7676 17.4V15.992C88.7676 15.8533 88.8316 15.784 88.9596 15.784H95.2156ZM112.477 28.344C112.338 28.344 112.269 28.28 112.269 28.152V14.488C112.269 14.3493 112.338 14.28 112.477 14.28H114.109C114.258 14.28 114.333 14.3493 114.333 14.488V28.152C114.333 28.28 114.258 28.344 114.109 28.344H112.477ZM103.885 25.32C103.853 25.3413 103.805 25.352 103.741 25.352C103.677 25.352 103.623 25.32 103.581 25.256L102.829 23.928C102.797 23.8747 102.781 23.832 102.781 23.8C102.781 23.7467 102.823 23.6933 102.909 23.64C104.647 22.7973 105.895 21.9333 106.653 21.048C107.41 20.1627 107.789 19.1173 107.789 17.912V17.592H103.309C103.181 17.592 103.117 17.528 103.117 17.4V15.992C103.117 15.8533 103.181 15.784 103.309 15.784H109.645C109.783 15.784 109.853 15.8533 109.853 15.992V17.912C109.853 19.448 109.367 20.8187 108.397 22.024C107.426 23.2187 105.922 24.3173 103.885 25.32Z" fill="white"/>
<circle cx="37.2571" cy="20.2571" r="9.25712" stroke="white" stroke-width="2"/>
<path d="M41.2026 20.9939C41.7549 20.9939 42.2026 20.5462 42.2026 19.9939C42.2026 19.4416 41.7549 18.9939 41.2026 18.9939L41.2026 19.9939L41.2026 20.9939ZM32.0794 19.2868C31.6889 19.6773 31.6889 20.3105 32.0794 20.701L38.4434 27.065C38.8339 27.4555 39.4671 27.4555 39.8576 27.065C40.2481 26.6744 40.2481 26.0413 39.8576 25.6507L34.2008 19.9939L39.8576 14.337C40.2481 13.9465 40.2482 13.3134 39.8576 12.9228C39.4671 12.5323 38.8339 12.5323 38.4434 12.9228L32.0794 19.2868ZM41.2026 19.9939L41.2026 18.9939L32.7865 18.9939L32.7865 19.9939L32.7865 20.9939L41.2026 20.9939L41.2026 19.9939Z" fill="white"/>
<defs>
<filter id="filter0_d_958_2" x="0" y="0" width="143.882" height="43.7566" filterUnits="userSpaceOnUse" color-interpolation-filters="sRGB">
<feFlood flood-opacity="0" result="BackgroundImageFix"/>
<feColorMatrix in="SourceAlpha" type="matrix" values="0 0 0 0 0 0 0 0 0 0 0 0 0 0 0 0 0 0 127 0" result="hardAlpha"/>
<feOffset dy="4"/>
<feComposite in2="hardAlpha" operator="out"/>
<feColorMatrix type="matrix" values="0 0 0 0 0 0 0 0 0 0.625125 0 0 0 0 0.756731 0 0 0 1 0"/>
<feBlend mode="normal" in2="BackgroundImageFix" result="effect1_dropShadow_958_2"/>
<feBlend mode="normal" in="SourceGraphic" in2="effect1_dropShadow_958_2" result="shape"/>
</filter>
</defs>
</svg>
