<svg width="40" height="40" viewBox="0 0 40 40" fill="none" xmlns="http://www.w3.org/2000/svg">
<path d="M37.9985 38.0682C40.3439 35.7229 40.3439 31.9201 37.9985 29.5747L28.8489 20.4251L38.0675 11.2065C40.413 8.861 40.413 5.05838 38.0675 2.71291C35.722 0.367708 31.9193 0.367528 29.574 2.71291L20.3553 11.9315L11.136 2.71222C8.79061 0.367009 4.98777 0.366889 2.64244 2.71222C0.297167 5.05755 0.297246 8.8604 2.64244 11.2058L11.8618 20.4251L2.71287 29.574C0.367682 31.9194 0.367736 35.7221 2.71287 38.0676C5.05828 40.413 8.86096 40.4128 11.2064 38.0676L20.3553 28.9187L29.5049 38.0682C31.8503 40.4136 35.6531 40.4136 37.9985 38.0682Z" fill="#03AED2"/>
</svg>
