<svg width="185" height="181" viewBox="0 0 185 181" fill="none" xmlns="http://www.w3.org/2000/svg">
<ellipse cx="92.5" cy="90.0974" rx="92.5" ry="90.0974" fill="#68D2E8"/>
<circle cx="91.6283" cy="67.274" r="24.0274" fill="white"/>
<path d="M125.849 127.707C125.849 123.308 124.983 118.953 123.3 114.89C121.616 110.826 119.149 107.134 116.039 104.024C112.929 100.914 109.237 98.4465 105.173 96.7634C101.11 95.0802 96.7547 94.2139 92.3563 94.2139C87.958 94.2139 83.6027 95.0802 79.5392 96.7634C75.4757 98.4465 71.7834 100.914 68.6733 104.024C65.5632 107.134 63.0962 110.826 61.413 114.89C59.7298 118.953 58.8635 123.308 58.8635 127.707L92.3563 127.707H125.849Z" fill="white"/>
</svg>
