<svg width="61" height="61" viewBox="0 0 61 61" fill="none" xmlns="http://www.w3.org/2000/svg">
<path d="M61 30.5C61 47.3447 47.3447 61 30.5 61C13.6553 61 0 47.3447 0 30.5C0 13.6553 13.6553 0 30.5 0C47.3447 0 61 13.6553 61 30.5Z" fill="#03AED2"/>
<path d="M43.0498 16C44.2652 16.0002 45.2508 16.9858 45.251 18.2012V36.124C45.251 37.3396 44.2653 38.325 43.0498 38.3252C43.0017 38.3252 42.9536 38.3214 42.9062 38.3184C42.861 38.3208 42.8154 38.3252 42.7695 38.3252H31.4922V43.9727C31.4922 45.5598 29.7327 46.5145 28.4023 45.6494L15.9092 37.5215C14.6968 36.7327 14.6968 34.9568 15.9092 34.168L28.4023 26.04C29.7328 25.1748 31.4922 26.1297 31.4922 27.7168V33.3643H40.8477V18.2012C40.8479 16.9857 41.8342 16 43.0498 16Z" fill="white"/>
</svg>
