<svg width="40" height="40" viewBox="0 0 40 40" fill="none" xmlns="http://www.w3.org/2000/svg">
<g filter="url(#filter0_i_247_331)">
<circle cx="20" cy="20" r="20" fill="#68D2E8"/>
</g>
<path d="M19.9805 30C21.3072 30 22.3828 28.9244 22.3828 27.5977V22.4219H27.5977C28.9244 22.4219 30 21.3463 30 20.0195C30 18.6928 28.9244 17.6172 27.5977 17.6172H22.3828V12.4023C22.3828 11.0756 21.3072 10 19.9805 10C18.6537 10 17.5781 11.0756 17.5781 12.4023V17.6172H12.4023C11.0756 17.6172 10 18.6928 10 20.0195C10 21.3463 11.0756 22.4219 12.4023 22.4219H17.5781V27.5977C17.5781 28.9244 18.6537 30 19.9805 30Z" fill="white"/>
<defs>
<filter id="filter0_i_247_331" x="0" y="0" width="40" height="40" filterUnits="userSpaceOnUse" color-interpolation-filters="sRGB">
<feFlood flood-opacity="0" result="BackgroundImageFix"/>
<feBlend mode="normal" in="SourceGraphic" in2="BackgroundImageFix" result="shape"/>
<feColorMatrix in="SourceAlpha" type="matrix" values="0 0 0 0 0 0 0 0 0 0 0 0 0 0 0 0 0 0 127 0" result="hardAlpha"/>
<feOffset dy="-2"/>
<feComposite in2="hardAlpha" operator="arithmetic" k2="-1" k3="1"/>
<feColorMatrix type="matrix" values="0 0 0 0 0 0 0 0 0 0 0 0 0 0 0 0 0 0 0.25 0"/>
<feBlend mode="normal" in2="shape" result="effect1_innerShadow_247_331"/>
</filter>
</defs>
</svg>
